<svg version="1.1" id="Layer_1" xmlns="http://www.w3.org/2000/svg" xmlns:xlink="http://www.w3.org/1999/xlink" x="0px" y="0px"
	 viewBox="0 0 512 512" xml:space="preserve">
<path style="fill:#FF635C;" d="M428.12,374.905V477.81c0,12.015-9.724,21.739-21.727,21.739H369.39
	c-10.434,0-19.386-7.433-21.341-17.68c-8.267-43.304-46.342-76.037-92.048-76.037s-83.781,32.733-92.048,76.037
	c-1.955,10.247-10.907,17.68-21.341,17.68h-37.004c-12.003,0-21.727-9.724-21.727-21.739V374.905
	c0-12.003,9.724-21.739,21.727-21.739h58.556h70.098h43.478h70.098h58.556C418.396,353.166,428.12,362.902,428.12,374.905z"/>
<path style="fill:#F0C419;" d="M369.577,261.329v70.11c0,12.003-9.737,21.727-21.739,21.727H277.74
	c-12.015,0-21.739-9.724-21.739-21.727v-70.11c0-12.003,9.724-21.727,21.739-21.727h13.31h56.788
	C359.841,239.602,369.577,249.326,369.577,261.329z"/>
<path style="fill:#FF635C;" d="M319.239,90.629c11.492,14.206,1.382,35.397-16.896,35.397H291.05h-70.098h-11.293
	c-18.278,0-28.388-21.191-16.896-35.397l63.237-78.178L319.239,90.629z"/>
<path style="fill:#4992EC;" d="M312.789,147.766v70.098c0,12.003-9.736,21.739-21.739,21.739h-13.31h-43.478h-13.31
	c-12.003,0-21.739-9.736-21.739-21.739v-70.098c0-12.015,9.737-21.739,21.739-21.739h70.098
	C303.053,126.027,312.789,135.751,312.789,147.766z"/>
<path style="fill:#64A64E;" d="M256.001,261.329v70.11c0,12.003-9.724,21.727-21.739,21.727h-70.098
	c-12.003,0-21.739-9.724-21.739-21.727v-70.11c0-12.003,9.736-21.727,21.739-21.727h56.788h13.31
	C246.277,239.602,256.001,249.326,256.001,261.329z"/>
<path style="fill:#333" d="M71.431,374.905V477.81c0,18.853,15.332,34.19,34.177,34.19h37.004c16.38,0,30.498-11.691,33.57-27.795
	c7.292-38.198,40.861-65.922,79.818-65.922s72.526,27.724,79.818,65.919C338.89,500.31,353.009,512,369.388,512h37.004
	c18.845,0,34.177-15.337,34.177-34.19V374.905c0-18.853-15.332-34.19-34.177-34.19h-25.656c0.834-2.952,1.29-6.061,1.29-9.276
	v-70.11c0-18.845-15.338-34.177-34.19-34.177h-23.891c0.835-2.956,1.292-6.068,1.292-9.288v-70.098
	c0-5.47-1.297-10.638-3.591-15.227c4.857-3.326,8.869-7.919,11.542-13.52c5.729-12.003,4.093-25.881-4.272-36.219L265.679,4.62
	C263.317,1.698,259.76,0,256.001,0c-3.759,0-7.316,1.698-9.68,4.62l-63.237,78.178c-8.364,10.339-10,24.218-4.272,36.22
	c2.673,5.602,6.684,10.195,11.542,13.52c-2.293,4.589-3.591,9.758-3.591,15.227v70.098c0,3.22,0.457,6.332,1.292,9.288h-23.891
	c-18.853,0-34.19,15.332-34.19,34.177v70.11c0,3.215,0.456,6.324,1.29,9.276h-25.656C86.763,340.715,71.431,356.052,71.431,374.905z
	 M415.67,374.905V477.81c0,5.121-4.161,9.288-9.276,9.288H369.39c-4.442,0-8.275-3.18-9.11-7.564
	c-9.531-49.92-53.386-86.153-104.279-86.153s-94.748,36.233-104.279,86.155c-0.835,4.381-4.668,7.561-9.11,7.561h-37.004
	c-5.115,0-9.276-4.167-9.276-9.288V374.905c0-5.121,4.161-9.288,9.276-9.288h300.785C411.509,365.616,415.67,369.784,415.67,374.905
	z M357.126,261.329v70.11c0,5.115-4.167,9.276-9.288,9.276H277.74c-5.121,0-9.288-4.161-9.288-9.276v-70.11
	c0-5.115,4.167-9.276,9.288-9.276h13.31h56.788C352.959,252.053,357.126,256.214,357.126,261.329z M202.444,98.459l53.557-66.211
	l53.558,66.212c3.322,4.106,1.917,8.245,1.159,9.832c-0.758,1.587-3.092,5.283-8.374,5.283h-92.683
	c-5.283,0-7.616-3.694-8.374-5.283C200.527,106.704,199.121,102.566,202.444,98.459z M211.664,217.863v-70.098
	c0-5.121,4.167-9.288,9.288-9.288h70.098c5.121,0,9.288,4.167,9.288,9.288v70.098c0,5.121-4.167,9.288-9.288,9.288h-70.098
	C215.831,227.152,211.664,222.984,211.664,217.863z M154.876,331.439v-70.11c0-5.115,4.167-9.276,9.288-9.276h56.788h13.31
	c5.121,0,9.288,4.161,9.288,9.276v70.11c0,5.115-4.167,9.276-9.288,9.276h-70.098C159.042,340.715,154.876,336.554,154.876,331.439z
	"/>
<path style="fill:#333" d="M390.884,472.145c6.877,0,12.451-5.574,12.451-12.451v-18.178c0-6.877-5.574-12.451-12.451-12.451
	s-12.451,5.574-12.451,12.451v18.178C378.433,466.571,384.007,472.145,390.884,472.145z"/>
<path style="fill:#333" d="M390.884,417.029c6.877,0,12.451-5.574,12.451-12.451v-3.735c0-6.877-5.574-12.451-12.451-12.451
	s-12.451,5.574-12.451,12.451v3.735C378.433,411.455,384.007,417.029,390.884,417.029z"/>
</svg>
